<?xml version="1.0" encoding="UTF-8"?>
<svg width="33px" height="44px" viewBox="0 0 33 44" version="1.1" xmlns="http://www.w3.org/2000/svg" xmlns:xlink="http://www.w3.org/1999/xlink">
    <!-- Generator: Sketch 54.1 (76490) - https://sketchapp.com -->
    <title>smsmarketing@1x</title>
    <desc>Created with Sketch.</desc>
    <g id="Symbols" stroke="none" stroke-width="1" fill="none" fill-rule="evenodd">
        <g id="Icons-/-SMS-Marketing" transform="translate(-11.000000, -2.000000)">
            <g id="smsmarketing" transform="translate(11.000000, 2.000000)">
                <polygon id="Rectangle" fill="#FFD9D4" points="3.4137931 3.56756757 27.3103448 3.56756757 27.3103448 44 3.4137931 44"></polygon>
                <path d="M0,-2.0250468e-13 L23.8965517,-2.0250468e-13 L23.8965517,40.4324324 L0,40.4324324 L0,-2.0250468e-13 Z M8.45905526,2.3940256 C8.13472605,2.3940256 7.87180527,2.65694638 7.87180527,2.98127559 L7.87180527,3.00378842 C7.87180527,3.32811763 8.13472605,3.59103841 8.45905526,3.59103841 L15.1563606,3.59103841 C15.4806898,3.59103841 15.7436105,3.32811763 15.7436105,3.00378842 L15.7436105,2.98127559 C15.7436105,2.65694638 15.4806898,2.3940256 15.1563606,2.3940256 L8.45905526,2.3940256 Z" id="Rectangle-Copy-6" fill="#044A75"></path>
                <path d="M13.8513401,17.6917693 C13.8495306,17.6130365 13.8486207,17.5340749 13.8486207,17.4548949 C13.8486207,12.0197496 18.135803,7.61369369 23.4243103,7.61369369 C28.7128177,7.61369369 33,12.0197496 33,17.4548949 C33,22.8900402 28.7128177,27.2960961 23.4243103,27.2960961 L13.9616036,27.2960961 L13.8513401,17.6917693 Z" id="Combined-Shape" fill="#0092FF"></path>
            </g>
        </g>
    </g>
</svg>