<?xml version="1.0" encoding="UTF-8"?>
<svg width="38px" height="38px" viewBox="0 0 38 38" version="1.1" xmlns="http://www.w3.org/2000/svg" xmlns:xlink="http://www.w3.org/1999/xlink">
    <!-- Generator: Sketch 54.1 (76490) - https://sketchapp.com -->
    <title>chat@1x</title>
    <desc>Created with Sketch.</desc>
    <g id="Symbols" stroke="none" stroke-width="1" fill="none" fill-rule="evenodd">
        <g id="Icons-/-Chat" transform="translate(-5.000000, -5.000000)">
            <g id="chat" transform="translate(5.000000, 5.000000)">
                <path d="M4.01348408,21.6833633 C4.00452286,21.4566882 4,21.2288723 4,21 C4,20.9081959 4.0007277,20.8165618 4.00217764,20.725103 L4,20.5405405 L4.00593231,20.5464729 C4.24633066,11.3672779 11.7628054,4 21,4 C30.3888407,4 38,11.6111593 38,21 C38,30.2371946 30.6327221,37.7536693 21.4535224,37.9940678 L21.4594595,38 L4.2060029,38 L4.01348408,21.6833633 Z" id="Combined-Shape" fill="#FFD9D4" transform="translate(21.000000, 21.000000) scale(-1, 1) rotate(-90.000000) translate(-21.000000, -21.000000) "></path>
                <g id="Group-4">
                    <path d="M0.00481932889,17.3781518 C0.00161244425,17.2423888 0,17.1062312 0,16.969697 C0,7.59759212 7.59759212,0 16.969697,0 C26.3418018,0 33.9393939,7.59759212 33.9393939,16.969697 C33.9393939,26.3418018 26.3418018,33.9393939 16.969697,33.9393939 L0.200224223,33.9393939 L0.00481932889,17.3781518 Z" id="Combined-Shape" fill="#044A75"></path>
                    <path d="M17.152244,15.5555556 L17.22881,15.5555556 C18.7696843,15.5555556 20.0188098,16.804681 20.0188098,18.3455554 L20.0188098,18.4221214 C20.0188098,19.9629957 18.7696843,21.2121212 17.22881,21.2121212 L17.152244,21.2121212 C15.6113696,21.2121212 14.3622441,19.9629957 14.3622441,18.4221214 L14.3622441,18.3455554 C14.3622441,16.804681 15.6113696,15.5555556 17.152244,15.5555556 Z M8.4465655,15.5555556 L8.52313147,15.5555556 C10.0640058,15.5555556 11.3131313,16.804681 11.3131313,18.3455554 L11.3131313,18.4221214 C11.3131313,19.9629957 10.0640058,21.2121212 8.52313147,21.2121212 L8.4465655,21.2121212 C6.90569113,21.2121212 5.65656566,19.9629957 5.65656566,18.4221214 L5.65656566,18.3455554 C5.65656566,16.804681 6.90569113,15.5555556 8.4465655,15.5555556 Z M25.6370925,15.5555556 L25.7136584,15.5555556 C27.2545328,15.5555556 28.5036583,16.804681 28.5036583,18.3455554 L28.5036583,18.4221214 C28.5036583,19.9629957 27.2545328,21.2121212 25.7136584,21.2121212 L25.6370925,21.2121212 C24.0962181,21.2121212 22.8470926,19.9629957 22.8470926,18.4221214 L22.8470926,18.3455554 C22.8470926,16.804681 24.0962181,15.5555556 25.6370925,15.5555556 Z" id="Rectangle-2" fill="#0092FF"></path>
                </g>
            </g>
        </g>
    </g>
</svg>