<?xml version="1.0" encoding="UTF-8"?> <!-- Generator: Adobe Illustrator 22.1.0, SVG Export Plug-In . SVG Version: 6.00 Build 0) --> <svg xmlns="http://www.w3.org/2000/svg" xmlns:xlink="http://www.w3.org/1999/xlink" x="0px" y="0px" viewBox="0 0 20 14" style="enable-background:new 0 0 20 14;" xml:space="preserve"> <style type="text/css"> .st0{clip-path:url(#SVGID_2_);} .st1{fill:#FF9933;} .st2{fill:#FFFFFF;} .st3{fill:#128807;} .st4{fill:#000088;} </style> <g id="Layer_2"> </g> <g id="Layer_1"> <g> <defs> <path id="SVGID_1_" d="M18.4,14H1.2C0.5,14,0,13.4,0,12.8V1.3c0-0.7,0.5-1.2,1.2-1.2h17.2c0.7,0,1.2,0.5,1.2,1.2v11.5 C19.6,13.4,19.1,14,18.4,14z"></path> </defs> <clipPath id="SVGID_2_"> <use xlink:href="#SVGID_1_" style="overflow:visible;"></use> </clipPath> <g class="st0"> <rect x="-0.9" y="0.1" class="st1" width="20.9" height="13.9"></rect> <rect x="-0.9" y="4.7" class="st2" width="20.9" height="4.6"></rect> <rect x="-0.9" y="9.4" class="st3" width="20.9" height="4.6"></rect> <g> <circle class="st4" cx="-102.9" cy="-68" r="1.9"></circle> <circle class="st2" cx="-102.9" cy="-68" r="1.6"></circle> <circle class="st4" cx="-102.9" cy="-68" r="0.3"></circle> <g> <g> <g id="b"> <g id="a"> <circle class="st4" cx="-101.3" cy="-67.8" r="0.1"></circle> <path class="st4" d="M-102.9-66.3l0.1-1l-0.1-0.5l-0.1,0.5L-102.9-66.3z"></path> </g> <g transform="rotate(15)"> <g id="a_27_"> <circle class="st4" cx="-101.4" cy="-67.3" r="0.1"></circle> <path class="st4" d="M-103.4-66.4l0.3-0.9l0.1-0.5l-0.2,0.4L-103.4-66.4z"></path> </g> </g> </g> <g id="c_6_"> <g id="b_14_"> <g id="a_26_"> <circle class="st4" cx="-101.6" cy="-67" r="0.1"></circle> <path class="st4" d="M-103.8-66.6l0.5-0.8l0.2-0.4l-0.3,0.4L-103.8-66.6z"></path> </g> <g transform="rotate(30)"> <g id="a_25_"> <circle class="st4" cx="-101.9" cy="-66.7" r="0.1"></circle> <path class="st4" d="M-104.1-66.8l0.7-0.7l0.3-0.4l-0.4,0.3L-104.1-66.8z"></path> </g> </g> </g> </g> <g> <g id="d_4_"> <g id="b_13_"> <g id="a_24_"> <circle class="st4" cx="-102.3" cy="-66.5" r="0.1"></circle> <path class="st4" d="M-104.3-67.2l0.9-0.4l0.4-0.3l-0.4,0.2L-104.3-67.2z"></path> </g> <g transform="rotate(15)"> <g id="a_5_"> <circle class="st4" cx="-102.7" cy="-66.4" r="0.1"></circle> <path class="st4" d="M-104.5-67.6l1-0.2l0.4-0.2l-0.5,0.1L-104.5-67.6z"></path> </g> </g> </g> <g id="c_1_"> <g id="b_12_"> <g id="a_6_"> <circle class="st4" cx="-103.1" cy="-66.4" r="0.1"></circle> <path class="st4" d="M-104.6-68l1,0.1l0.5-0.1l-0.5-0.1L-104.6-68z"></path> </g> <g transform="rotate(60)"> <g id="a_7_"> <circle class="st4" cx="-103.6" cy="-66.5" r="0.1"></circle> <path class="st4" d="M-104.5-68.4l0.9,0.3l0.5,0.1l-0.4-0.2L-104.5-68.4z"></path> </g> </g> </g> </g> </g> <g> <g> <g> <g id="b_4_"> <g id="a_8_"> <circle class="st4" cx="-103.9" cy="-66.7" r="0.1"></circle> <path class="st4" d="M-104.3-68.8l0.8,0.5l0.4,0.2l-0.4-0.3L-104.3-68.8z"></path> </g> <g transform="rotate(15)"> <g id="a_9_"> <circle class="st4" cx="-104.2" cy="-67" r="0.1"></circle> <path class="st4" d="M-104.1-69.1l0.7,0.7l0.4,0.3l-0.3-0.4L-104.1-69.1z"></path> </g> </g> </g> <g id="c_2_"> <g id="b_5_"> <g id="a_10_"> <circle class="st4" cx="-104.4" cy="-67.3" r="0.1"></circle> <path class="st4" d="M-103.8-69.4l0.4,0.9l0.3,0.4l-0.2-0.4L-103.8-69.4z"></path> </g> <g transform="rotate(30)"> <g id="a_11_"> <circle class="st4" cx="-104.6" cy="-67.8" r="0.1"></circle> <path class="st4" d="M-103.4-69.5l0.2,1l0.2,0.4l-0.1-0.5L-103.4-69.5z"></path> </g> </g> </g> </g> <g> <g id="d_3_"> <g id="b_6_"> <g id="a_12_"> <circle class="st4" cx="-104.6" cy="-68.2" r="0.1"></circle> <path class="st4" d="M-102.9-69.6l-0.1,1l0.1,0.5l0.1-0.5L-102.9-69.6z"></path> </g> <g transform="rotate(15)"> <g id="a_13_"> <circle class="st4" cx="-104.4" cy="-68.6" r="0.1"></circle> <path class="st4" d="M-102.5-69.5l-0.3,0.9l-0.1,0.5l0.2-0.4L-102.5-69.5z"></path> </g> </g> </g> <g id="c_3_"> <g id="b_7_"> <g id="a_14_"> <circle class="st4" cx="-104.2" cy="-69" r="0.1"></circle> <path class="st4" d="M-102.1-69.4l-0.5,0.8l-0.2,0.4l0.3-0.4L-102.1-69.4z"></path> </g> <g transform="rotate(120)"> <g id="a_15_"> <circle class="st4" cx="-103.9" cy="-69.3" r="0.1"></circle> <path class="st4" d="M-101.8-69.1l-0.7,0.7l-0.3,0.4l0.4-0.3L-101.8-69.1z"></path> </g> </g> </g> </g> </g> <g> <g> <g> <g id="b_8_"> <g id="a_16_"> <circle class="st4" cx="-103.6" cy="-69.5" r="0.1"></circle> <path class="st4" d="M-101.5-68.8l-0.9,0.4l-0.4,0.3l0.4-0.2L-101.5-68.8z"></path> </g> <g transform="rotate(15)"> <g id="a_17_"> <circle class="st4" cx="-103.1" cy="-69.6" r="0.1"></circle> <path class="st4" d="M-101.4-68.4l-1,0.2l-0.4,0.2l0.5-0.1L-101.4-68.4z"></path> </g> </g> </g> <g id="c_4_"> <g id="b_9_"> <g id="a_18_"> <circle class="st4" cx="-102.7" cy="-69.6" r="0.1"></circle> <path class="st4" d="M-101.3-68l-1-0.1l-0.5,0.1l0.5,0.1L-101.3-68z"></path> </g> <g transform="rotate(30)"> <g id="a_19_"> <circle class="st4" cx="-102.3" cy="-69.5" r="0.1"></circle> <path class="st4" d="M-101.4-67.6l-0.9-0.3l-0.5-0.1l0.4,0.2L-101.4-67.6z"></path> </g> </g> </g> </g> <g transform="translate(112.5,75)"> <g id="d_2_"> <g id="b_10_"> <g id="a_20_"> <circle class="st4" cx="-101.9" cy="-69.3" r="0.1"></circle> <path class="st4" d="M-101.5-67.2l-0.8-0.5l-0.4-0.2l0.4,0.3L-101.5-67.2z"></path> </g> <g transform="rotate(15)"> <g id="a_21_"> <circle class="st4" cx="-101.6" cy="-69" r="0.1"></circle> <path class="st4" d="M-101.8-66.8l-0.7-0.7l-0.4-0.3l0.3,0.4L-101.8-66.8z"></path> </g> </g> </g> <g id="c_5_"> <g id="b_11_"> <g id="a_22_"> <circle class="st4" cx="-101.4" cy="-68.6" r="0.1"></circle> <path class="st4" d="M-102.1-66.6l-0.4-0.9l-0.3-0.4l0.2,0.4L-102.1-66.6z"></path> </g> <g transform="rotate(-120)"> <g id="a_23_"> <circle class="st4" cx="-101.3" cy="-68.2" r="0.1"></circle> <path class="st4" d="M-102.5-66.4l-0.2-1l-0.2-0.4l0.1,0.5L-102.5-66.4z"></path> </g> </g> </g> </g> </g> </g> </g> </g> </g> </g> </g> </g> </g> </g> </g> </g> </g> </g> </g> </g> </svg> 