<?xml version="1.0" encoding="utf-8"?>
<!-- Generator: Adobe Illustrator 25.0.0, SVG Export Plug-In . SVG Version: 6.00 Build 0)  -->
<svg version="1.0" xmlns="http://www.w3.org/2000/svg" xmlns:xlink="http://www.w3.org/1999/xlink" x="0px" y="0px"
	 viewBox="0 0 80 80" style="enable-background:new 0 0 80 80;" xml:space="preserve">
<style type="text/css">
	.st0{fill:none;}
	.st1{fill-rule:evenodd;clip-rule:evenodd;fill:#EBF8F3;}
	.st2{clip-path:url(#SVGID_2_);fill:#EBF8F3;}
	.st3{clip-path:url(#SVGID_2_);fill:none;stroke:#555C66;stroke-width:0.5028;stroke-miterlimit:10;}
	.st4{clip-path:url(#SVGID_2_);fill:none;stroke:#555C66;stroke-width:0.4861;stroke-miterlimit:10;}
	.st5{clip-path:url(#SVGID_2_);}
	.st6{fill:none;stroke:#555C66;stroke-width:0.5;stroke-miterlimit:10;}
	.st7{fill:#EBF8F3;}
	.st8{clip-path:url(#SVGID_4_);fill:#EBF8F3;}
	.st9{clip-path:url(#SVGID_4_);fill:none;stroke:#555C66;stroke-width:0.5;stroke-miterlimit:10;}
	.st10{clip-path:url(#SVGID_6_);fill:#EBF8F3;}
	.st11{clip-path:url(#SVGID_6_);fill:none;stroke:#555C66;stroke-width:0.5;stroke-linejoin:round;stroke-miterlimit:10;}
	.st12{fill:none;stroke:#555C66;stroke-width:0.5;stroke-linejoin:round;stroke-miterlimit:10;}
	.st13{clip-path:url(#SVGID_8_);fill:none;stroke:#555C66;stroke-width:0.5;stroke-miterlimit:10;}
	.st14{fill:#555C66;}
	.st15{clip-path:url(#SVGID_10_);fill:#EBF8F3;}
	.st16{clip-path:url(#SVGID_10_);fill:none;stroke:#555C66;stroke-width:0.5;stroke-miterlimit:10;}
	.st17{fill:none;stroke:#545C66;stroke-width:0.4989;stroke-miterlimit:10;}
	.st18{fill:none;stroke:#555C66;stroke-width:0.5;stroke-linecap:round;stroke-linejoin:round;stroke-miterlimit:10;}
	.st19{clip-path:url(#SVGID_12_);fill:none;stroke:#565C67;stroke-width:0.5;stroke-linecap:round;stroke-miterlimit:10;}
	.st20{fill:none;stroke:#565C67;stroke-width:0.5;stroke-miterlimit:10;}
	.st21{fill:#FFFFFF;stroke:#555C66;stroke-width:0.5;stroke-linecap:square;stroke-miterlimit:10;}
	.st22{clip-path:url(#SVGID_14_);fill:none;stroke:#555C66;stroke-width:0.5;stroke-linecap:square;stroke-miterlimit:10;}
	.st23{clip-path:url(#Oval_2_);fill:none;stroke:#555C66;stroke-width:0.5;stroke-miterlimit:10;}
	.st24{clip-path:url(#SVGID_16_);fill:none;stroke:#555C66;stroke-width:0.5;stroke-linecap:round;stroke-miterlimit:10;}
	.st25{fill:#FFFFFF;stroke:#555C66;stroke-width:0.5;stroke-miterlimit:10;}
	.st26{fill:none;stroke:#555C66;stroke-width:0.5;stroke-linecap:round;stroke-miterlimit:10;}
	.st27{clip-path:url(#SVGID_18_);fill:none;stroke:#555C66;stroke-width:0.5;stroke-linejoin:round;stroke-miterlimit:10;}
	.st28{stroke:#555C66;stroke-width:0.5;stroke-miterlimit:10;}
	.st29{clip-path:url(#SVGID_20_);fill:#EBF8F3;}
	.st30{fill:none;stroke:#555C66;stroke-width:0.5;stroke-linejoin:bevel;stroke-miterlimit:10;}
	.st31{fill:#555C66;stroke:#555C66;stroke-width:0.5;stroke-miterlimit:10;}
	.st32{fill:none;stroke:#555C66;stroke-width:0.5;}
	.st33{clip-path:url(#SVGID_22_);fill:none;stroke:#555C66;stroke-width:0.5;stroke-miterlimit:10;}
	.st34{clip-path:url(#SVGID_24_);fill:none;stroke:#555C66;stroke-width:0.5;stroke-miterlimit:10;}
	.st35{clip-path:url(#SVGID_26_);fill:none;stroke:#555C66;stroke-width:0.5;stroke-linejoin:round;stroke-miterlimit:10;}
	.st36{clip-path:url(#SVGID_26_);}
	.st37{fill:#555C67;}
	.st38{fill:#EBF8F3;stroke:#EBF8F3;stroke-width:0.3058;stroke-miterlimit:10;}
	.st39{fill:none;stroke:#565C67;stroke-width:0.5;stroke-linecap:round;stroke-miterlimit:10;}
	.st40{display:none;fill:#555C66;}
	.st41{fill:none;stroke:#555C66;stroke-width:0.4808;stroke-miterlimit:10;}
	.st42{clip-path:url(#SVGID_28_);fill:none;stroke:#555C66;stroke-width:0.5;stroke-miterlimit:10;}
	.st43{clip-path:url(#SVGID_30_);}
	.st44{fill:#231F20;}
	.st45{display:none;}
	.st46{display:inline;}
	.st47{fill:#FFFFFF;}
	.st48{display:inline;fill:none;stroke:#555C66;stroke-width:0.5;stroke-miterlimit:10;}
	.st49{display:none;fill:#FFFFFF;}
	.st50{clip-path:url(#SVGID_32_);fill:#EBF8F3;}
	.st51{clip-path:url(#SVGID_32_);fill:none;stroke:#555C66;stroke-width:0.5;stroke-miterlimit:10;}
	.st52{clip-path:url(#SVGID_32_);fill:none;stroke:#555C66;stroke-width:0.5;stroke-linejoin:round;stroke-miterlimit:10;}
	.st53{clip-path:url(#SVGID_34_);}
	.st54{clip-path:url(#SVGID_36_);fill:none;stroke:#555C66;stroke-width:0.5;stroke-miterlimit:10;}
	.st55{clip-path:url(#SVGID_38_);fill:none;stroke:#565C67;stroke-width:0.5;stroke-linecap:round;stroke-miterlimit:10;}
	.st56{clip-path:url(#SVGID_40_);fill:none;stroke:#555C66;stroke-width:0.5;stroke-linecap:square;stroke-miterlimit:10;}
	.st57{clip-path:url(#SVGID_42_);}
	.st58{clip-path:url(#SVGID_44_);}
	.st59{display:none;fill:none;stroke:#555C66;stroke-width:0.5;stroke-miterlimit:10;}
	.st60{clip-path:url(#SVGID_46_);fill:none;stroke:#555C66;stroke-width:0.5;stroke-linecap:square;stroke-miterlimit:10;}
	.st61{clip-path:url(#SVGID_48_);fill:none;stroke:#555C66;stroke-width:0.5;stroke-miterlimit:10;}
	.st62{fill-rule:evenodd;clip-rule:evenodd;fill:none;stroke:#565C67;stroke-width:0.5;stroke-miterlimit:10;}
	.st63{fill:#FFFFFF;stroke:#555C66;stroke-width:0.5345;stroke-miterlimit:10;}
	.st64{clip-path:url(#SVGID_50_);}
	.st65{clip-path:url(#SVGID_52_);fill:none;stroke:#555C66;stroke-width:0.5;stroke-linejoin:round;stroke-miterlimit:10;}
	.st66{display:inline;fill:#EBF8F3;}
	.st67{display:inline;fill:#FFFFFF;}
	.st68{clip-path:url(#SVGID_54_);}
	.st69{clip-path:url(#SVGID_54_);fill:#EBF8F3;}
	.st70{clip-path:url(#SVGID_54_);fill:none;stroke:#555C66;stroke-width:0.5;stroke-linejoin:round;stroke-miterlimit:10;}
	.st71{clip-path:url(#SVGID_56_);}
	.st72{fill:none;stroke:#555C66;stroke-width:0.4;stroke-miterlimit:10;}
	.st73{display:none;fill:none;stroke:#555C66;stroke-width:0.5;stroke-linejoin:round;stroke-miterlimit:10;}
	.st74{clip-path:url(#SVGID_58_);fill:none;stroke:#555C66;stroke-width:0.5;stroke-linejoin:round;stroke-miterlimit:10;}
	.st75{clip-path:url(#SVGID_60_);fill:none;stroke:#555C66;stroke-width:0.5;stroke-linejoin:round;stroke-miterlimit:10;}
	.st76{clip-path:url(#SVGID_62_);}
	.st77{clip-path:url(#SVGID_64_);fill:none;stroke:#555C66;stroke-width:0.5;stroke-miterlimit:10;}
	.st78{clip-path:url(#SVGID_66_);}
	.st79{fill:none;stroke:#555C66;stroke-width:0.4695;stroke-miterlimit:10;}
	.st80{clip-path:url(#SVGID_68_);fill:none;stroke:#555C66;stroke-width:0.5;stroke-miterlimit:10;}
	.st81{fill:none;stroke:#555C66;stroke-width:0.4996;stroke-miterlimit:10;stroke-dasharray:2.5512,2.5512;}
	.st82{fill:none;stroke:#555C66;stroke-width:0.4583;stroke-linejoin:round;stroke-miterlimit:10;}
	.st83{fill:none;stroke:#555C66;stroke-width:0.4926;stroke-miterlimit:10;}
	.st84{fill-rule:evenodd;clip-rule:evenodd;fill:none;stroke:#555C66;stroke-width:0.4982;stroke-miterlimit:10;}
</style>
<g id="_x38_0_x__x_80">
	<rect class="st0" width="80" height="80"/>
</g>
<g id="Pictograms">
	<g>
		<circle class="st7" cx="43" cy="43" r="13"/>
	</g>
	<path class="st6" d="M42.25,37.25c0-1.242-1.007-2.25-2.25-2.25c-1.243,0-2.25,1.008-2.25,2.25S38.757,39.5,40,39.5
		C41.243,39.5,42.25,38.492,42.25,37.25z"/>
	<path class="st6" d="M44.5,44c0-1.492-2.013-2.7-4.5-2.7c-2.487,0-4.5,1.208-4.5,2.7"/>
	<g>
		<g>
			<path class="st7" d="M68.701,41.5c0,1.656,1.342,3,2.999,3c1.658,0,3-1.344,3-3c0-1.656-1.342-3-3-3
				C70.043,38.5,68.701,39.844,68.701,41.5z"/>
		</g>
		<g>
			<path class="st7" d="M8.3,41.5c0,1.656,1.342,3,2.999,3c1.658,0,3-1.344,3-3c0-1.656-1.342-3-3-3C9.643,38.5,8.3,39.844,8.3,41.5
				z"/>
		</g>
		<line class="st6" x1="15.799" y1="40" x2="23.967" y2="40"/>
		<line class="st6" x1="56.033" y1="40" x2="64.201" y2="40"/>
		<path class="st6" d="M67.201,40c0,1.656,1.342,3,2.999,3c1.658,0,3-1.344,3-3c0-1.656-1.342-3-3-3
			C68.543,37,67.201,38.344,67.201,40z"/>
		<path class="st6" d="M6.8,40c0,1.656,1.342,3,2.999,3c1.658,0,3-1.344,3-3c0-1.656-1.342-3-3-3C8.143,37,6.8,38.344,6.8,40z"/>
		<polyline class="st6" points="17.479,41.68 15.799,40 17.479,38.32 		"/>
		<polyline class="st6" points="62.521,38.32 64.201,40 62.521,41.68 		"/>
	</g>
	<g>
		<g>
			<path class="st7" d="M24.9,12.748c-1.434,0.828-1.927,2.663-1.099,4.097c0.829,1.436,2.664,1.926,4.098,1.098
				c1.435-0.828,1.927-2.663,1.098-4.098C28.169,12.411,26.335,11.92,24.9,12.748z"/>
		</g>
		<g>
			<path class="st7" d="M55.1,65.057c-1.434,0.828-1.927,2.663-1.099,4.097c0.829,1.436,2.664,1.926,4.098,1.098
				c1.435-0.828,1.927-2.663,1.098-4.098C58.37,64.719,56.535,64.228,55.1,65.057z"/>
		</g>
		<path class="st6" d="M53.6,63.557c-1.434,0.828-1.927,2.663-1.099,4.097c0.829,1.436,2.664,1.926,4.098,1.098
			c1.435-0.828,1.927-2.663,1.098-4.098C56.87,63.219,55.035,62.728,53.6,63.557z"/>
		<path class="st6" d="M23.4,11.248c-1.434,0.828-1.927,2.663-1.099,4.097c0.829,1.436,2.664,1.926,4.098,1.098
			c1.435-0.828,1.927-2.663,1.098-4.098C26.669,10.911,24.835,10.42,23.4,11.248z"/>
		<path class="st6" d="M23.4,11.248c-1.434,0.828-1.927,2.663-1.099,4.097c0.829,1.436,2.664,1.926,4.098,1.098
			c1.435-0.828,1.927-2.663,1.098-4.098C26.669,10.911,24.835,10.42,23.4,11.248z"/>
		<line class="st6" x1="52.1" y1="60.959" x2="48.017" y2="53.885"/>
		<line class="st6" x1="31.983" y1="26.115" x2="27.9" y2="19.041"/>
		<polyline class="st6" points="49.806,60.344 52.1,60.959 52.715,58.664 		"/>
		<polyline class="st6" points="30.194,19.656 27.9,19.041 27.285,21.336 		"/>
	</g>
	<g>
		<g>
			<path class="st7" d="M27.899,65.057c-1.434-0.828-3.269-0.337-4.097,1.097c-0.829,1.436-0.336,3.27,1.098,4.098
				c1.435,0.828,3.269,0.337,4.098-1.098C29.826,67.719,29.334,65.885,27.899,65.057z"/>
		</g>
		<g>
			<path class="st7" d="M58.1,12.748c-1.434-0.828-3.269-0.337-4.097,1.097c-0.829,1.436-0.336,3.27,1.098,4.098
				c1.435,0.828,3.269,0.337,4.098-1.098C60.027,15.411,59.534,13.576,58.1,12.748z"/>
		</g>
		<path class="st6" d="M26.399,63.557c-1.434-0.828-3.269-0.337-4.097,1.097c-0.829,1.436-0.336,3.27,1.098,4.098
			c1.435,0.828,3.269,0.337,4.098-1.098C28.326,66.219,27.834,64.385,26.399,63.557z"/>
		<path class="st6" d="M56.6,11.248c-1.434-0.828-3.269-0.337-4.097,1.097c-0.829,1.436-0.336,3.27,1.098,4.098
			c1.435,0.828,3.269,0.337,4.098-1.098C58.527,13.911,58.034,12.076,56.6,11.248z"/>
		<line class="st6" x1="52.1" y1="19.041" x2="48.017" y2="26.115"/>
		<line class="st6" x1="31.983" y1="53.885" x2="27.9" y2="60.959"/>
		<polyline class="st6" points="52.715,21.336 52.1,19.041 49.806,19.656 		"/>
		<polyline class="st6" points="27.285,58.664 27.9,60.959 30.194,60.344 		"/>
	</g>
	<circle class="st6" cx="40" cy="40" r="13"/>
</g>
</svg>
