<?xml version="1.0" encoding="utf-8"?>
<!-- Generator: Adobe Illustrator 25.0.0, SVG Export Plug-In . SVG Version: 6.00 Build 0)  -->
<svg version="1.0" xmlns="http://www.w3.org/2000/svg" xmlns:xlink="http://www.w3.org/1999/xlink" x="0px" y="0px"
	 viewBox="0 0 80 80" style="enable-background:new 0 0 80 80;" xml:space="preserve">
<style type="text/css">
	.st0{fill:none;}
	.st1{fill-rule:evenodd;clip-rule:evenodd;fill:#EBF8F3;}
	.st2{clip-path:url(#SVGID_2_);fill:#EBF8F3;}
	.st3{clip-path:url(#SVGID_2_);fill:none;stroke:#555C66;stroke-width:0.5028;stroke-miterlimit:10;}
	.st4{clip-path:url(#SVGID_2_);fill:none;stroke:#555C66;stroke-width:0.4861;stroke-miterlimit:10;}
	.st5{clip-path:url(#SVGID_2_);}
	.st6{fill:none;stroke:#555C66;stroke-width:0.5;stroke-miterlimit:10;}
	.st7{fill:#EBF8F3;}
	.st8{clip-path:url(#SVGID_4_);fill:#EBF8F3;}
	.st9{clip-path:url(#SVGID_4_);fill:none;stroke:#555C66;stroke-width:0.5;stroke-miterlimit:10;}
	.st10{clip-path:url(#SVGID_6_);fill:#EBF8F3;}
	.st11{clip-path:url(#SVGID_6_);fill:none;stroke:#555C66;stroke-width:0.5;stroke-linejoin:round;stroke-miterlimit:10;}
	.st12{fill:none;stroke:#555C66;stroke-width:0.5;stroke-linejoin:round;stroke-miterlimit:10;}
	.st13{clip-path:url(#SVGID_8_);fill:none;stroke:#555C66;stroke-width:0.5;stroke-miterlimit:10;}
	.st14{fill:#555C66;}
	.st15{clip-path:url(#SVGID_10_);fill:#EBF8F3;}
	.st16{clip-path:url(#SVGID_10_);fill:none;stroke:#555C66;stroke-width:0.5;stroke-miterlimit:10;}
	.st17{fill:none;stroke:#545C66;stroke-width:0.4989;stroke-miterlimit:10;}
	.st18{fill:none;stroke:#555C66;stroke-width:0.5;stroke-linecap:round;stroke-linejoin:round;stroke-miterlimit:10;}
	.st19{clip-path:url(#SVGID_12_);fill:none;stroke:#565C67;stroke-width:0.5;stroke-linecap:round;stroke-miterlimit:10;}
	.st20{fill:none;stroke:#565C67;stroke-width:0.5;stroke-miterlimit:10;}
	.st21{fill:#FFFFFF;stroke:#555C66;stroke-width:0.5;stroke-linecap:square;stroke-miterlimit:10;}
	.st22{clip-path:url(#SVGID_14_);fill:none;stroke:#555C66;stroke-width:0.5;stroke-linecap:square;stroke-miterlimit:10;}
	.st23{clip-path:url(#Oval_2_);fill:none;stroke:#555C66;stroke-width:0.5;stroke-miterlimit:10;}
	.st24{clip-path:url(#SVGID_16_);fill:none;stroke:#555C66;stroke-width:0.5;stroke-linecap:round;stroke-miterlimit:10;}
	.st25{fill:#FFFFFF;stroke:#555C66;stroke-width:0.5;stroke-miterlimit:10;}
	.st26{fill:none;stroke:#555C66;stroke-width:0.5;stroke-linecap:round;stroke-miterlimit:10;}
	.st27{clip-path:url(#SVGID_18_);fill:none;stroke:#555C66;stroke-width:0.5;stroke-linejoin:round;stroke-miterlimit:10;}
	.st28{stroke:#555C66;stroke-width:0.5;stroke-miterlimit:10;}
	.st29{clip-path:url(#SVGID_20_);fill:#EBF8F3;}
	.st30{fill:none;stroke:#555C66;stroke-width:0.5;stroke-linejoin:bevel;stroke-miterlimit:10;}
	.st31{fill:#555C66;stroke:#555C66;stroke-width:0.5;stroke-miterlimit:10;}
	.st32{fill:none;stroke:#555C66;stroke-width:0.5;}
	.st33{clip-path:url(#SVGID_22_);fill:none;stroke:#555C66;stroke-width:0.5;stroke-miterlimit:10;}
	.st34{clip-path:url(#SVGID_24_);fill:none;stroke:#555C66;stroke-width:0.5;stroke-miterlimit:10;}
	.st35{clip-path:url(#SVGID_26_);fill:none;stroke:#555C66;stroke-width:0.5;stroke-linejoin:round;stroke-miterlimit:10;}
	.st36{clip-path:url(#SVGID_26_);}
	.st37{fill:#555C67;}
	.st38{fill:#EBF8F3;stroke:#EBF8F3;stroke-width:0.3058;stroke-miterlimit:10;}
	.st39{fill:none;stroke:#565C67;stroke-width:0.5;stroke-linecap:round;stroke-miterlimit:10;}
	.st40{display:none;fill:#555C66;}
	.st41{fill:none;stroke:#555C66;stroke-width:0.4808;stroke-miterlimit:10;}
	.st42{clip-path:url(#SVGID_28_);fill:none;stroke:#555C66;stroke-width:0.5;stroke-miterlimit:10;}
	.st43{clip-path:url(#SVGID_30_);}
	.st44{fill:#231F20;}
	.st45{display:none;}
	.st46{display:inline;}
	.st47{fill:#FFFFFF;}
	.st48{display:inline;fill:none;stroke:#555C66;stroke-width:0.5;stroke-miterlimit:10;}
	.st49{display:none;fill:#FFFFFF;}
	.st50{clip-path:url(#SVGID_32_);fill:#EBF8F3;}
	.st51{clip-path:url(#SVGID_32_);fill:none;stroke:#555C66;stroke-width:0.5;stroke-miterlimit:10;}
	.st52{clip-path:url(#SVGID_32_);fill:none;stroke:#555C66;stroke-width:0.5;stroke-linejoin:round;stroke-miterlimit:10;}
	.st53{clip-path:url(#SVGID_34_);}
	.st54{clip-path:url(#SVGID_36_);fill:none;stroke:#555C66;stroke-width:0.5;stroke-miterlimit:10;}
	.st55{clip-path:url(#SVGID_38_);fill:none;stroke:#565C67;stroke-width:0.5;stroke-linecap:round;stroke-miterlimit:10;}
	.st56{clip-path:url(#SVGID_40_);fill:none;stroke:#555C66;stroke-width:0.5;stroke-linecap:square;stroke-miterlimit:10;}
	.st57{clip-path:url(#SVGID_42_);}
	.st58{clip-path:url(#SVGID_44_);}
	.st59{display:none;fill:none;stroke:#555C66;stroke-width:0.5;stroke-miterlimit:10;}
	.st60{clip-path:url(#SVGID_46_);fill:none;stroke:#555C66;stroke-width:0.5;stroke-linecap:square;stroke-miterlimit:10;}
	.st61{clip-path:url(#SVGID_48_);fill:none;stroke:#555C66;stroke-width:0.5;stroke-miterlimit:10;}
	.st62{fill-rule:evenodd;clip-rule:evenodd;fill:none;stroke:#565C67;stroke-width:0.5;stroke-miterlimit:10;}
	.st63{fill:#FFFFFF;stroke:#555C66;stroke-width:0.5345;stroke-miterlimit:10;}
	.st64{clip-path:url(#SVGID_50_);}
	.st65{clip-path:url(#SVGID_52_);fill:none;stroke:#555C66;stroke-width:0.5;stroke-linejoin:round;stroke-miterlimit:10;}
	.st66{display:inline;fill:#EBF8F3;}
	.st67{display:inline;fill:#FFFFFF;}
	.st68{clip-path:url(#SVGID_54_);}
	.st69{clip-path:url(#SVGID_54_);fill:#EBF8F3;}
	.st70{clip-path:url(#SVGID_54_);fill:none;stroke:#555C66;stroke-width:0.5;stroke-linejoin:round;stroke-miterlimit:10;}
	.st71{clip-path:url(#SVGID_56_);}
	.st72{fill:none;stroke:#555C66;stroke-width:0.4;stroke-miterlimit:10;}
	.st73{display:none;fill:none;stroke:#555C66;stroke-width:0.5;stroke-linejoin:round;stroke-miterlimit:10;}
	.st74{clip-path:url(#SVGID_58_);fill:none;stroke:#555C66;stroke-width:0.5;stroke-linejoin:round;stroke-miterlimit:10;}
	.st75{clip-path:url(#SVGID_60_);fill:none;stroke:#555C66;stroke-width:0.5;stroke-linejoin:round;stroke-miterlimit:10;}
	.st76{clip-path:url(#SVGID_62_);}
	.st77{clip-path:url(#SVGID_64_);fill:none;stroke:#555C66;stroke-width:0.5;stroke-miterlimit:10;}
	.st78{clip-path:url(#SVGID_66_);}
	.st79{fill:none;stroke:#555C66;stroke-width:0.4695;stroke-miterlimit:10;}
	.st80{clip-path:url(#SVGID_68_);fill:none;stroke:#555C66;stroke-width:0.5;stroke-miterlimit:10;}
	.st81{fill:none;stroke:#555C66;stroke-width:0.4996;stroke-miterlimit:10;stroke-dasharray:2.5512,2.5512;}
	.st82{fill:none;stroke:#555C66;stroke-width:0.4583;stroke-linejoin:round;stroke-miterlimit:10;}
	.st83{fill:none;stroke:#555C66;stroke-width:0.4926;stroke-miterlimit:10;}
	.st84{fill-rule:evenodd;clip-rule:evenodd;fill:none;stroke:#555C66;stroke-width:0.4982;stroke-miterlimit:10;}
</style>
<g id="_x38_0_x__x_80">
	<g>
		<rect class="st0" width="80" height="80"/>
	</g>
</g>
<g id="Pictograms">
	<g>
		<polygon class="st49" points="66.017,42.9 65.998,42.917 60.788,42.917 57.212,42.917 52.002,42.917 51.983,42.9 51.966,42.917 
			51.941,42.917 51.94,42.943 48.255,46.627 45.727,49.155 42.043,52.839 42.017,52.841 42.017,52.866 42,52.883 42.017,52.903 
			42.017,58.112 42.017,61.688 42.017,66.898 42,66.918 42.017,66.935 42.017,66.959 42.043,66.96 45.727,70.645 48.256,73.173 
			51.94,76.857 51.941,76.883 51.966,76.883 51.983,76.9 52.002,76.883 57.212,76.883 60.788,76.883 65.998,76.883 66.017,76.9 
			66.034,76.883 66.059,76.883 66.061,76.856 69.744,73.173 72.273,70.645 75.957,66.961 75.983,66.959 75.983,66.935 76,66.918 
			75.983,66.898 75.983,61.688 75.983,58.112 75.983,52.903 76,52.883 75.983,52.865 75.983,52.841 75.957,52.839 72.273,49.155 
			69.744,46.627 66.061,42.944 66.059,42.917 66.034,42.917 66.017,42.9 		"/>
		<path class="st0" d="M60.895,47.9l0.2,2.807c1.04,0.254,2.014,0.676,2.887,1.242l2.163-1.875l2.68,2.68l-1.911,2.205
			c0.53,0.865,0.928,1.818,1.159,2.837L71,58.005v3.789l-2.927,0.209c-0.231,1.019-0.629,1.972-1.159,2.837l1.911,2.205l-2.68,2.679
			l-2.163-1.874c-0.874,0.566-1.847,0.988-2.887,1.242l-0.2,2.807h-3.789l-0.195-2.724c-1.09-0.226-2.106-0.647-3.024-1.212
			l-2.032,1.761l-2.68-2.679l1.725-1.991c-0.602-0.926-1.046-1.963-1.295-3.074L47,61.795v-3.789l2.605-0.186
			c0.249-1.112,0.693-2.148,1.295-3.074l-1.725-1.991l2.68-2.68l2.032,1.761c0.918-0.565,1.934-0.987,3.024-1.212l0.195-2.724
			H60.895"/>
		<path class="st6" d="M71,61.795v-3.789l-2.927-0.209c-0.231-1.019-0.629-1.972-1.159-2.837l1.911-2.205l-2.68-2.68l-2.163,1.875
			c-0.874-0.566-1.847-0.988-2.887-1.242l-0.2-2.807h-3.789l-0.195,2.724c-1.09,0.226-2.106,0.647-3.024,1.212l-2.032-1.761
			l-2.68,2.68l1.725,1.991c-0.602,0.926-1.046,1.963-1.295,3.074L47,58.005v3.789l2.605,0.186c0.249,1.111,0.693,2.148,1.295,3.074
			l-1.725,1.991l2.68,2.679l2.032-1.761c0.918,0.565,1.934,0.987,3.024,1.212l0.195,2.724h3.789l0.2-2.807
			c1.04-0.254,2.014-0.676,2.887-1.242l2.163,1.874l2.68-2.679l-1.911-2.205c0.531-0.865,0.928-1.818,1.159-2.837L71,61.795z
			 M58.848,64.7c-2.65,0-4.798-2.15-4.798-4.8c0-2.65,2.148-4.8,4.798-4.8c2.652,0,4.8,2.15,4.8,4.8
			C63.648,62.55,61.5,64.7,58.848,64.7z"/>
	</g>
	<g>
		<defs>
			<polygon id="SVGID_33_" points="42.043,66.96 42.017,66.959 42.017,66.935 42,66.917 42.017,66.898 42.017,61.688 42.017,58.112 
				42.017,52.903 42,52.883 42.017,52.866 42.017,52.841 42.043,52.839 45.727,49.155 48.255,46.627 51.94,42.943 51.941,42.917 
				51.966,42.917 51.983,42.9 52.002,42.917 56.5,42.917 56.5,38.868 56.5,12 21,12 21,69 44.083,69 			"/>
		</defs>
		<clipPath id="SVGID_2_">
			<use xlink:href="#SVGID_33_"  style="overflow:visible;"/>
		</clipPath>
		<g class="st5">
			<rect x="24.5" y="15.5" class="st7" width="32" height="11"/>
			<rect x="24.5" y="58" class="st7" width="32" height="11"/>
			<rect x="24.5" y="36.5" class="st7" width="32" height="11"/>
			<rect x="21.5" y="12.5" class="st6" width="32" height="11"/>
			<line class="st12" x1="26.5" y1="18" x2="48.5" y2="18"/>
			<rect x="21.5" y="55" class="st6" width="32" height="11"/>
			<line class="st12" x1="26.5" y1="60.5" x2="48.5" y2="60.5"/>
			<rect x="21.5" y="33.5" class="st6" width="32" height="11"/>
			<line class="st12" x1="26.5" y1="39" x2="48.5" y2="39"/>
			<line class="st12" x1="29" y1="30.5" x2="29" y2="26.5"/>
			<line class="st12" x1="29" y1="52" x2="29" y2="47.5"/>
		</g>
	</g>
</g>
</svg>
