<?xml version="1.0" encoding="UTF-8"?> <svg xmlns="http://www.w3.org/2000/svg" xmlns:xlink="http://www.w3.org/1999/xlink" viewBox="0 0 20 14"><defs><rect id="a" width="19.6" height="14" x="0" y="0" rx="1.4"></rect><linearGradient id="e" x1="50%" x2="50%" y1="0%" y2="100%"><stop offset="0%" stop-color="#FFF"></stop><stop offset="100%" stop-color="#F0F0F0"></stop></linearGradient><path id="d" d="M1.4 1.867a.467.467 0 1 1 0-.934.467.467 0 0 1 0 .934zm1.867 0a.467.467 0 1 1 0-.934.467.467 0 0 1 0 .934zm1.866 0a.467.467 0 1 1 0-.934.467.467 0 0 1 0 .934zm1.867 0a.467.467 0 1 1 0-.934.467.467 0 0 1 0 .934zM2.333 2.8a.467.467 0 1 1 0-.933.467.467 0 0 1 0 .933zm1.867 0a.467.467 0 1 1 0-.933.467.467 0 0 1 0 .933zm1.867 0a.467.467 0 1 1 0-.933.467.467 0 0 1 0 .933zM7 3.733A.467.467 0 1 1 7 2.8a.467.467 0 0 1 0 .933zm-1.867 0a.467.467 0 1 1 0-.933.467.467 0 0 1 0 .933zm-1.866 0a.467.467 0 1 1 0-.933.467.467 0 0 1 0 .933zm-1.867 0a.467.467 0 1 1 0-.933.467.467 0 0 1 0 .933zm.933.934a.467.467 0 1 1 0-.934.467.467 0 0 1 0 .934zm1.867 0a.467.467 0 1 1 0-.934.467.467 0 0 1 0 .934zm1.867 0a.467.467 0 1 1 0-.934.467.467 0 0 1 0 .934zM7 5.6a.467.467 0 1 1 0-.933.467.467 0 0 1 0 .933zm-1.867 0a.467.467 0 1 1 0-.933.467.467 0 0 1 0 .933zm-1.866 0a.467.467 0 1 1 0-.933.467.467 0 0 1 0 .933zM1.4 5.6a.467.467 0 1 1 0-.933.467.467 0 0 1 0 .933z"></path><filter id="c" width="115.3%" height="141.1%" x="-7.7%" y="-10.7%"><feOffset dy="1" in="SourceAlpha" result="shadowOffsetOuter1"></feOffset><feColorMatrix in="shadowOffsetOuter1" values="0 0 0 0 0 0 0 0 0 0 0 0 0 0 0 0 0 0 0.06 0"></feColorMatrix></filter></defs><g fill="none" fill-rule="evenodd"><mask id="b" fill="#fff"><use xlink:href="#a"></use></mask><use fill="#FFF" xlink:href="#a"></use><path fill="#D02F44" d="M0 0h19.6v.933H0V0zm0 1.867h19.6V2.8H0v-.933zm0 1.866h19.6v.934H0v-.934zM0 5.6h19.6v.933H0V5.6zm0 1.867h19.6V8.4H0v-.933zm0 1.866h19.6v.934H0v-.934zM0 11.2h19.6v.933H0V11.2zm0 1.867h19.6V14H0v-.933z" mask="url(#b)"></path><path fill="#46467F" d="M0 0h8.4v6.533H0z" mask="url(#b)"></path><g mask="url(#b)"><use fill="#000" filter="url(#c)" xlink:href="#d"></use><use fill="url(#e)" xlink:href="#d"></use></g></g></svg> 